<?xml version="1.0" encoding="UTF-8"?>
<svg xmlns="http://www.w3.org/2000/svg" width="84" height="84" viewBox="0 0 84 84" fill="none">
  <g clip-path="url(#clip0_1658_1015)">
    <path d="M32.5668 0.393753C30.8114 1.23047 30.3192 2.19844 30.2208 5.11875L30.1551 7.20235L28.6458 7.77657C25.4137 9.03985 21.7551 11.1727 19.0809 13.3383L17.752 14.4211L15.9801 13.4039C14.3231 12.4523 14.1426 12.3867 13.0598 12.3375C11.6817 12.2883 10.7301 12.682 9.99185 13.6172C9.13872 14.7 1.41138 28.2844 1.24732 28.9898C1.14888 29.482 1.14888 29.9578 1.29653 30.5813C1.57544 31.8281 2.41216 32.7141 4.29888 33.7969C5.1356 34.2727 5.85747 34.6992 5.89028 34.7156C5.9231 34.7484 5.80825 35.7164 5.64419 36.8648C5.23403 39.6703 5.23403 44.5594 5.64419 47.2992C5.80825 48.3656 5.90669 49.268 5.89028 49.2844C5.85747 49.3172 5.1356 49.7273 4.29888 50.2031C2.41216 51.2695 1.57544 52.1719 1.29653 53.4023C1.14888 54.075 1.14888 54.4523 1.29653 55.0594C1.49341 55.7977 9.00747 69.0867 9.95903 70.35C10.1723 70.6453 10.7301 71.0719 11.1895 71.3016C11.9114 71.6625 12.2067 71.7117 13.1254 71.6625C14.1098 71.6133 14.3887 71.5148 15.9801 70.5961L17.7192 69.5789L19.0809 70.6617C21.8208 72.8766 25.3809 74.9438 28.6458 76.2234L30.1551 76.7977L30.2208 78.8813C30.3192 81.8016 30.8114 82.7695 32.5668 83.6063L33.3872 84H42.0004H50.6137L51.434 83.6063C53.1895 82.7695 53.6817 81.8016 53.7801 78.8813L53.8458 76.7977L55.3551 76.2234C58.5872 74.9602 62.2458 72.8273 64.92 70.6617L66.2489 69.5789L68.0208 70.5961C69.6122 71.5148 69.8911 71.6133 70.8754 71.6625C71.7942 71.7117 72.0895 71.6625 72.8114 71.3016C73.2708 71.0719 73.8286 70.6453 74.0418 70.35C74.9934 69.0867 82.5075 55.7977 82.7043 55.0594C82.852 54.4523 82.852 54.075 82.7043 53.4023C82.4254 52.1719 81.5887 51.2695 79.702 50.2031C78.8653 49.7273 78.1434 49.3008 78.1106 49.2844C78.0778 49.2516 78.1926 48.2836 78.3567 47.1352C78.7668 44.3297 78.7668 39.4406 78.3567 36.7008C78.1926 35.6344 78.0942 34.732 78.1106 34.7156C78.1434 34.6828 78.8653 34.2727 79.702 33.7969C81.5887 32.7141 82.4254 31.8281 82.7043 30.5813C82.852 29.9578 82.852 29.482 82.7536 28.9898C82.5895 28.2844 74.8622 14.7 74.009 13.6172C73.2708 12.682 72.3192 12.2883 70.9411 12.3375C69.8583 12.3867 69.6778 12.4523 68.0208 13.4039L66.2653 14.4211L64.92 13.3383C62.1801 11.1234 58.62 9.05625 55.3551 7.77657L53.8458 7.20235L53.7801 5.11875C53.6817 2.19844 53.1895 1.23047 51.434 0.393753L50.6137 0H42.0004H33.3872L32.5668 0.393753ZM50.4497 2.625C51.1715 2.90391 51.352 3.64219 51.352 6.2836C51.352 9.07266 51.27 8.94141 53.4028 9.67969C57.3895 11.0742 61.1465 13.3055 65.002 16.6031C65.3793 16.9148 65.8059 17.1117 66.0684 17.1117C66.3309 17.1117 67.4137 16.6031 68.5786 15.9469C70.859 14.6344 71.4004 14.5195 72.0239 15.1758C72.6145 15.8156 80.3911 29.3836 80.3911 29.7938C80.3911 30.4008 79.7676 30.9258 77.684 32.1398C76.2567 32.9602 75.6661 33.3867 75.5676 33.6984C75.4528 33.9938 75.5348 34.7977 75.8137 36.4547C76.3715 39.7688 76.3715 44.182 75.7973 47.5453C75.5184 49.2023 75.4528 50.0063 75.5676 50.3016C75.6661 50.6133 76.2731 51.0563 77.684 51.8766C79.784 53.0742 80.3911 53.6156 80.3911 54.2063C80.3911 54.6 72.5981 68.2008 72.0075 68.8406C71.4004 69.4805 70.8262 69.3656 68.6278 68.0859C67.5286 67.4625 66.4622 66.9047 66.2489 66.8555C65.8223 66.7406 65.4942 66.9539 63.5911 68.5453C60.884 70.8094 56.7332 73.1555 53.4028 74.3203C51.27 75.0586 51.352 74.9273 51.352 77.7164C51.352 80.3578 51.1715 81.0961 50.4497 81.375C49.8754 81.5883 34.1254 81.5883 33.5512 81.375C32.8293 81.0961 32.6489 80.3578 32.6489 77.7164C32.6489 74.9273 32.7309 75.0586 30.5981 74.3203C26.6114 72.9258 22.8543 70.6945 18.9989 67.3969C18.6215 67.0852 18.195 66.8883 17.9325 66.8883C17.67 66.8883 16.5872 67.3969 15.4223 68.0531C13.1418 69.3492 12.6004 69.4805 11.9934 68.8406C11.4028 68.2008 3.60982 54.6 3.60982 54.2063C3.60982 53.5992 4.23325 53.0742 6.31685 51.8602C7.74419 51.0398 8.33482 50.6133 8.43325 50.3016C8.5481 50.0063 8.46607 49.2023 8.18716 47.5453C7.62935 44.2313 7.62935 39.818 8.20357 36.4547C8.48247 34.7977 8.5481 33.9938 8.43325 33.6984C8.33482 33.3867 7.72778 32.9438 6.31685 32.1234C4.21685 30.9258 3.60982 30.3844 3.60982 29.7938C3.60982 29.4 11.4028 15.7992 11.9934 15.1594C12.6004 14.5195 13.1747 14.6344 15.3731 15.9141C16.4723 16.5375 17.5387 17.0953 17.752 17.1445C18.1786 17.2594 18.5067 17.0461 20.4098 15.4547C23.1168 13.1906 27.2676 10.8445 30.5981 9.67969C32.7309 8.94141 32.6489 9.07266 32.6489 6.2836C32.6489 3.70782 32.8293 2.90391 33.502 2.625C34.027 2.42813 49.8918 2.41172 50.4497 2.625Z" fill="black" stroke="black" stroke-width="0.6"></path>
    <path d="M50.4171 12.3039C49.9577 12.7304 49.9085 13.6164 50.335 13.9937C50.6139 14.2562 52.353 14.9781 53.4522 15.2898C54.4858 15.5851 55.3717 14.5679 54.8796 13.6164C54.6991 13.2554 54.3381 13.0421 53.2881 12.632C51.4506 11.9265 50.8764 11.8609 50.4171 12.3039Z" fill="#23BAB1"></path>
    <path d="M58.3406 16.0945C58.0125 16.357 57.9141 16.5703 57.9141 17.0625C57.9141 17.6859 57.9797 17.7516 59.5219 18.9164C61.1625 20.1633 63.6398 22.575 64.7555 24.0352C66.7898 26.6602 68.5781 30.007 69.5625 33.0422C70.1367 34.7977 70.4812 35.2734 71.1703 35.2734C71.9086 35.2734 72.3516 34.8633 72.3516 34.1414C72.3516 33.0914 70.9734 29.4164 69.6937 27.1031C67.6102 23.2805 64.4109 19.507 61.2117 17.0789C59.2594 15.6023 59.0625 15.5203 58.3406 16.0945Z" fill="#23BAB1"></path>
    <path d="M39.7033 17.2438C33.4197 17.8181 27.3822 20.9024 23.2807 25.6602C15.0939 35.1102 15.0939 48.8915 23.2807 58.3415C32.1893 68.6446 47.8572 69.7438 58.2916 60.786C68.6604 51.8774 69.7596 36.0946 60.7197 25.6602C56.5361 20.8204 50.5971 17.8181 44.051 17.2274C42.1971 17.047 41.6721 17.0634 39.7033 17.2438ZM46.3479 20.0329C54.2064 21.5915 60.6213 27.2024 63.2135 34.7821C64.7557 39.3102 64.7557 44.6915 63.2135 49.2196C60.9658 55.7657 55.765 60.9665 49.2189 63.2142C44.6908 64.7563 39.3096 64.7563 34.7814 63.2142C28.2354 60.9665 23.0346 55.7657 20.7869 49.2196C19.2447 44.6915 19.2447 39.3102 20.7869 34.7821C24.4291 24.1509 35.3393 17.8673 46.3479 20.0329Z" fill="black" stroke="black" stroke-width="0.6"></path>
    <path d="M32.403 35.6014C32.2062 35.6671 31.9765 35.8311 31.878 35.9624C31.7796 36.0772 30.7624 38.6694 29.6304 41.7046C27.4647 47.4632 27.4319 47.6436 28.1046 48.2179C28.2522 48.3327 28.646 48.3983 28.9905 48.3655C29.5483 48.3163 29.6632 48.2343 29.9749 47.6108C30.1718 47.2171 30.4015 46.6921 30.4999 46.4296L30.664 45.9374H33.453H36.2421L36.603 46.9054C37.0132 48.0702 37.3905 48.4475 38.0796 48.4311C38.7687 48.4147 39.2116 47.9718 39.2116 47.3319C39.2116 46.7905 35.5038 36.7335 35.0608 36.028C34.6999 35.4866 33.2397 35.2569 32.403 35.6014ZM34.3554 40.9007C34.7983 42.0819 35.1921 43.1647 35.2249 43.2632C35.2905 43.4272 34.8804 43.4764 33.4858 43.4764C32.4851 43.4764 31.6647 43.4272 31.6647 43.3616C31.6647 43.1319 33.371 38.7186 33.453 38.7186C33.5022 38.7186 33.9124 39.703 34.3554 40.9007Z" fill="#23BAB1"></path>
    <path d="M41.7375 35.5356C41.5406 35.5848 41.2453 35.7653 41.0813 35.9622C40.7859 36.2739 40.7695 36.6676 40.7695 41.9997C40.7695 47.3809 40.7859 47.7255 41.0813 48.0536C41.5078 48.513 42.4922 48.5294 42.9188 48.0536C43.1484 47.7911 43.2305 47.3973 43.2797 46.1997L43.3453 44.6739L45.4289 44.5919C47.0859 44.5262 47.693 44.4278 48.3328 44.1489C51.9914 42.5247 51.975 37.5536 48.3164 35.913C47.5945 35.5848 47.2008 35.5356 44.7891 35.5028C43.2961 35.4864 41.918 35.5028 41.7375 35.5356ZM47.0695 38.0622C48.1359 38.3575 48.8086 39.3911 48.5953 40.4411C48.5625 40.6872 48.2672 41.1301 47.9555 41.4419L47.3977 41.9997H45.3633H43.3125V39.9489V37.8981H44.9203C45.7898 37.8981 46.7578 37.9637 47.0695 38.0622Z" fill="#23BAB1"></path>
    <path d="M52.9266 35.9625C52.6969 36.2742 52.6641 37.1273 52.6641 42C52.6641 48.4148 52.6641 48.3984 53.7961 48.3984C54.2227 48.3984 54.518 48.2836 54.7312 48.0539C55.0266 47.7258 55.043 47.3812 55.043 42C55.043 36.6187 55.0266 36.2742 54.7312 35.9461C54.2883 35.4539 53.2711 35.4703 52.9266 35.9625Z" fill="#23BAB1"></path>
    <path d="M14.6017 55.6169C14.0275 56.1911 14.1751 56.8637 15.2579 58.5372C16.4556 60.4075 17.0134 60.6864 17.9322 59.9153C18.4408 59.4723 18.2603 58.7504 17.2923 57.1262C16.7837 56.2895 16.2259 55.5348 16.0619 55.4528C15.5861 55.1903 14.9462 55.2723 14.6017 55.6169Z" fill="#23BAB1"></path>
    <path d="M20.3276 62.671C19.8518 62.9499 19.6221 63.721 19.8846 64.1967C20.3276 65.0335 23.2807 67.4124 25.7581 68.9382C29.4659 71.2022 34.437 72.8757 38.6534 73.2694C39.7034 73.3678 39.851 73.3514 40.1792 73.0233C40.3924 72.81 40.5237 72.4655 40.5237 72.121C40.5237 71.3335 39.9823 70.9397 38.6862 70.8085C33.3706 70.2178 27.5956 67.7405 23.5432 64.328C21.3448 62.4577 20.9838 62.2772 20.3276 62.671Z" fill="#23BAB1"></path>
  </g>
  <defs>
    <clipPath id="clip0_1658_1015">
      <rect width="84" height="84" fill="white"></rect>
    </clipPath>
  </defs>
</svg>
