<?xml version="1.0" encoding="UTF-8"?>
<svg xmlns="http://www.w3.org/2000/svg" width="84" height="84" viewBox="0 0 84 84" fill="none">
  <g clip-path="url(#clip0_1658_1245)">
    <path d="M5.29933 4.8397C4.03605 5.18423 3.16652 5.67642 2.21495 6.57877C0.39386 8.30142 0.000110271 9.64674 0.000110271 14.2077C0.000110271 17.1936 0.0329228 17.5545 0.311829 17.8991C0.52511 18.178 0.78761 18.2764 1.23058 18.2764C1.67355 18.2764 1.93605 18.178 2.14933 17.8991C2.42824 17.5545 2.46105 17.1936 2.46105 14.2897C2.46105 10.2538 2.5923 9.67955 3.83917 8.43267C5.36495 6.92329 1.68996 7.05455 42.0001 7.05455C82.3103 7.05455 78.6353 6.92329 80.161 8.43267C81.6376 9.92564 81.5392 8.36705 81.5392 30.0561V49.0546H79.4064H77.2735V31.6967C77.2735 19.5069 77.2243 14.1585 77.0931 13.6991C76.847 12.846 75.7478 11.7467 74.8946 11.5006C73.9595 11.2381 10.0407 11.2381 9.10558 11.5006C8.25245 11.7467 7.15323 12.846 6.90714 13.6991C6.77589 14.1585 6.72667 19.5069 6.72667 31.6967V49.0546H4.59386H2.46105V35.8311C2.46105 27.6936 2.39542 22.5092 2.29699 22.3288C2.21495 22.1647 1.93605 21.935 1.65714 21.8366C1.26339 21.6725 1.09933 21.6725 0.689173 21.8858C0.426673 22.017 0.164173 22.2631 0.0985478 22.3944C0.049329 22.542 0.000110271 30.696 0.000110271 40.5069C0.000110271 60.178 -0.0327022 59.3741 1.0337 61.1788C2.01808 62.8358 3.75714 64.0499 5.70949 64.46C6.30011 64.5749 10.5001 64.6405 19.0314 64.6405C25.8892 64.6405 31.5001 64.7061 31.5001 64.7717C31.5001 64.8538 31.1392 66.4616 30.6798 68.3483C30.2368 70.235 29.8595 71.8264 29.8595 71.8921C29.8595 71.9741 29.236 72.0233 28.465 72.0233C26.89 72.0233 26.2337 72.2366 25.561 72.9421C24.9212 73.6311 24.7735 74.1725 24.7735 75.7147C24.7735 77.2569 24.9212 77.7983 25.561 78.4874C26.4634 79.4389 25.7579 79.4061 42.0001 79.4061C58.2423 79.4061 57.5368 79.4389 58.4392 78.4874C59.079 77.7983 59.2267 77.2569 59.2267 75.6983C59.2267 74.1397 59.0134 73.4835 58.3079 72.8108C57.6189 72.171 57.0775 72.0233 55.5189 72.0233C54.7642 72.0233 54.1407 71.9741 54.1407 71.8921C54.1407 71.8264 53.7634 70.235 53.3204 68.3483C52.861 66.4616 52.5001 64.8538 52.5001 64.7881C52.5001 64.7061 56.0439 64.6241 60.3915 64.6077L68.2829 64.5585L68.5946 64.1647C69.0048 63.6725 68.9884 63.1475 68.5618 62.6061L68.2337 62.1796H37.4228C3.42902 62.1796 5.67667 62.2452 4.24933 61.146C3.87198 60.8671 3.33058 60.2108 3.05167 59.7186L2.54308 58.8163L2.49386 55.1577L2.44464 51.5155H42.0001H81.5556L81.5064 55.1741L81.4571 58.8163L80.9485 59.7186C79.8821 61.6053 78.5368 62.1796 75.1899 62.1796C73.2212 62.1796 72.9751 62.2124 72.6798 62.5077C72.1876 62.9999 72.2368 63.8694 72.7782 64.296C73.172 64.6077 73.4345 64.6405 75.3212 64.6405C76.4696 64.6405 77.8149 64.5585 78.2907 64.46C80.2431 64.0499 81.9821 62.8358 82.9665 61.1788C84.0493 59.3577 84.0001 60.8014 84.0001 34.6171C84.0001 9.0397 84.0329 10.0405 83.1634 8.33424C82.6876 7.38268 81.3587 6.03736 80.4235 5.52876C78.586 4.52798 81.0634 4.59361 41.9181 4.61002C11.6321 4.61002 6.0212 4.64283 5.29933 4.8397ZM74.4845 14.1092C74.8126 14.4374 74.8126 14.6506 74.8126 31.746V49.0546H42.0001H9.18761V31.746C9.18761 14.6506 9.18761 14.4374 9.51573 14.1092C9.84386 13.7811 10.0571 13.7811 42.0001 13.7811C73.9431 13.7811 74.1564 13.7811 74.4845 14.1092ZM50.6954 67.9217C51.1056 69.6772 51.4993 71.3178 51.565 71.5639L51.6798 72.0233H42.0001C32.829 72.0233 32.304 72.0069 32.386 71.728C32.4353 71.5803 32.8126 70.0053 33.2228 68.2499C33.6329 66.4944 34.0103 64.9522 34.0431 64.8374C34.1087 64.6733 35.7821 64.6405 42.0329 64.6733L49.9407 64.7225L50.6954 67.9217ZM56.6837 75.7147V76.8631H42.0001H27.3165L27.2673 75.8952C27.2345 75.3702 27.2509 74.8288 27.3001 74.7139C27.3821 74.5171 29.7775 74.4842 42.0329 74.5171L56.6837 74.5663V75.7147Z" fill="black" stroke="black" stroke-width="0.6"></path>
    <path d="M47.6434 17.0461C47.2825 17.2102 46.7082 17.5875 46.3965 17.8664C45.4122 18.7195 45.1332 19.5399 44.8543 22.1813C44.7231 23.4774 44.5754 24.6258 44.5426 24.7242C44.4934 24.8555 44.1325 24.9375 43.5582 24.9375C43.0497 24.9375 42.4262 25.0524 42.1801 25.1836C41.5239 25.5117 40.884 26.332 40.7692 26.9555C40.72 27.2508 40.4739 30.4008 40.2114 33.961C39.7848 39.5391 39.67 40.5891 39.3747 41.3438C38.5707 43.3289 38.62 44.0508 39.6207 44.9367L40.2114 45.4453H49.5793H58.9637L59.5872 46.036C60.8176 47.2664 62.8028 46.9711 63.5739 45.4453C63.6887 45.2156 63.9512 44.3789 64.1481 43.5914L64.5254 42.1477L66.1004 43.7063C67.0028 44.5922 67.8887 45.3141 68.1512 45.3797C68.8239 45.5438 69.4637 45.0188 69.5293 44.2477C69.5786 43.6899 69.4801 43.5422 68.0036 42.0164C67.134 41.1305 66.4778 40.3594 66.5598 40.3266C66.6254 40.2774 67.3473 40.0805 68.1512 39.8672C70.3661 39.2766 71.2684 38.2594 70.9731 36.668C70.7434 35.4867 70.1364 35.0766 66.1168 33.4524C64.0825 32.6485 61.7856 31.7133 60.9981 31.3852C59.3739 30.7289 59.4887 30.9586 59.2918 28.3008C59.1114 25.8235 58.5207 25.1016 56.5192 24.9539L55.3707 24.8555L55.1082 22.2961C54.8129 19.507 54.5832 18.8508 53.6153 17.932C52.6637 17.0133 51.8106 16.7344 49.9567 16.7344C48.7098 16.7344 48.152 16.8164 47.6434 17.0461ZM51.6465 19.4578C51.8434 19.5891 52.1059 19.9008 52.2372 20.1469C52.4504 20.557 52.8278 23.3297 52.8278 24.4453V24.9375H49.9567C47.545 24.9375 47.0856 24.9047 47.0856 24.6914C47.0856 24.0024 47.4465 21 47.5942 20.4586C47.8403 19.5399 48.4965 19.1953 50.0387 19.1953C50.8918 19.1953 51.384 19.2774 51.6465 19.4578ZM56.8309 28.1531C56.8801 28.5797 56.9293 29.2031 56.9293 29.5477C56.9293 30.0891 56.8801 30.1875 56.3879 30.3352C55.2067 30.7289 54.1731 32.3039 54.37 33.4524C54.4192 33.7805 55.1247 35.6836 55.9286 37.6524C56.7325 39.6375 57.5528 41.6555 57.7332 42.1149L58.0778 42.9844H49.7106H41.3598L41.7536 41.918C42.1145 40.9664 42.2129 40.1297 42.6559 34.3219C42.9184 30.7453 43.1481 27.7102 43.1481 27.5953C43.1481 27.4477 44.6082 27.3985 49.9403 27.3985H56.7161L56.8309 28.1531ZM63.0489 34.8797C66.1004 36.1102 68.5614 37.1438 68.545 37.1766C68.5122 37.193 67.4293 37.5047 66.1497 37.8656C62.9668 38.7516 62.8848 38.8172 62.0153 42.082C61.7364 43.1649 61.4411 44.1 61.3754 44.1656C61.3098 44.2313 60.2434 41.7703 59.0129 38.7024C57.2082 34.2727 56.7817 33.0586 56.9457 32.8781C57.0442 32.7469 57.2247 32.6485 57.3231 32.6485C57.4215 32.6485 59.9973 33.6492 63.0489 34.8797Z" fill="#23BAB1"></path>
    <path d="M17.407 19.0479C16.4227 19.2448 15.4875 19.9174 14.9625 20.8198C14.5359 21.5416 14.5195 21.6565 14.5195 24.0354C14.5195 26.4307 14.5359 26.5127 14.9789 27.2674C15.5039 28.1698 16.1437 28.6619 17.1773 28.9737C18.3422 29.3346 30.6141 29.3018 31.8117 28.9408C32.9602 28.6127 33.8625 27.7104 34.1906 26.5619C34.5023 25.5612 34.5352 23.051 34.2727 21.8533C34.0758 20.8854 33.2391 19.8354 32.2547 19.3104C31.5984 18.9494 31.4508 18.9494 24.8555 18.9166C21.1641 18.9002 17.8008 18.9658 17.407 19.0479ZM31.5328 21.7877C31.8773 22.1158 31.9102 22.3455 31.9594 23.9533L32.025 25.758L31.5328 26.2502L31.0406 26.7424H24.5437C20.1469 26.7424 17.932 26.6768 17.6695 26.5619C17.0625 26.283 16.8984 25.7416 16.8984 23.9698C16.8984 22.2143 17.1445 21.5908 17.932 21.4432C18.1289 21.394 21.1969 21.3776 24.7242 21.394L31.1555 21.4104L31.5328 21.7877Z" fill="#23BAB1"></path>
    <path d="M16.9969 30.5976C16.1602 30.893 15.6023 31.3195 15.143 31.9922C14.5852 32.7961 14.4375 33.5344 14.4375 35.4539C14.4375 37.6195 14.7 38.6039 15.5367 39.4078C16.7016 40.5398 16.5867 40.5234 24.4453 40.5234C32.1398 40.5234 32.2055 40.5234 33.1898 39.5719C34.207 38.6203 34.3711 38.0461 34.3711 35.5195C34.3711 33.4359 34.3383 33.1406 33.9773 32.4351C33.5672 31.582 32.8125 30.9258 31.8773 30.5812C30.9586 30.2531 17.9156 30.2695 16.9969 30.5976ZM31.2375 32.993C31.8609 33.2883 32.025 33.9117 31.9594 35.7328C31.8773 38.2922 32.5992 38.0625 24.4289 38.0625H17.5711L17.2266 37.6195C16.8984 37.2094 16.882 37.0125 16.9312 35.3062C17.0133 32.5828 16.3242 32.8125 24.2977 32.8125C28.793 32.8125 30.9586 32.8781 31.2375 32.993Z" fill="#23BAB1"></path>
    <path d="M40.5899 52.6313C39.5728 52.9922 38.9001 53.5172 38.3259 54.3867C36.4063 57.2906 38.5063 61.1953 42.0009 61.1953C43.6579 61.1953 45.036 60.375 45.8563 58.882C46.2829 58.1109 46.3485 57.832 46.3485 56.7656C46.3485 55.8305 46.2501 55.3711 45.9876 54.8789C44.9048 52.8609 42.6243 51.893 40.5899 52.6313ZM42.7884 55.0266C43.8384 55.568 44.2157 56.618 43.7399 57.6188C43.0673 59.0297 41.0985 59.1117 40.2946 57.75C39.7696 56.8477 40.0485 55.8141 41.0001 55.1742C41.6399 54.7477 42.1649 54.6984 42.7884 55.0266Z" fill="black"></path>
  </g>
  <defs>
    <clipPath id="clip0_1658_1245">
      <rect width="84" height="84" fill="white"></rect>
    </clipPath>
  </defs>
</svg>
