<?xml version="1.0" encoding="UTF-8"?>
<svg xmlns="http://www.w3.org/2000/svg" width="88" height="88" viewBox="0 0 88 88" fill="none">
  <path d="M5.01875 8.69688C4.05625 9.17812 3.4375 9.84843 3.00781 10.8797C2.78438 11.4297 2.75 15.0562 2.75 42.4703C2.75 66.275 2.80156 73.5969 2.95625 74.1469C3.23125 75.0922 4.65781 76.5187 5.60313 76.7937C6.13594 76.9484 10.175 77 21.9828 77H37.6578L38.0703 76.5703C38.6375 76.0203 38.6375 75.2297 38.0703 74.6797L37.6578 74.25H22H6.34219L5.92969 73.8203L5.5 73.4078V47.6953V22H44H82.5V47.6953V73.4078L82.0703 73.8203L81.6578 74.25H77H72.3422L71.9297 74.6797C71.6547 74.9375 71.5 75.2984 71.5 75.625C71.5 75.9516 71.6547 76.3125 71.9297 76.5703L72.3422 77H77.0172C80.1797 77 81.9156 76.9312 82.3969 76.7937C83.3938 76.5016 84.7688 75.075 85.0438 74.0781C85.2156 73.4766 85.25 66.3609 85.2156 42.1781L85.1641 11.0516L84.6484 10.2094C84.3219 9.69375 83.8063 9.17812 83.2906 8.85156L82.4484 8.33594L44.1719 8.28437L5.9125 8.25L5.01875 8.69688ZM81.6922 11.1891C82.4141 11.5156 82.5 11.9969 82.5 15.7266V19.25H44H5.5V15.7266C5.5 12.0484 5.58594 11.5156 6.25625 11.2062C6.78906 10.9484 81.125 10.9313 81.6922 11.1891Z" fill="black" stroke="black"></path>
  <path d="M8.67985 14.1797C7.82047 15.0219 8.42204 16.5 9.62516 16.5C10.3298 16.5 11.0002 15.8297 11.0002 15.125C11.0002 14.4203 10.3298 13.75 9.62516 13.75C9.2986 13.75 8.93766 13.9047 8.67985 14.1797Z" fill="#23BAB1" stroke="#23BAB1"></path>
  <path d="M14.1798 14.1797C13.3205 15.0219 13.922 16.5 15.1252 16.5C15.8298 16.5 16.5002 15.8297 16.5002 15.125C16.5002 14.4203 15.8298 13.75 15.1252 13.75C14.7986 13.75 14.4377 13.9047 14.1798 14.1797Z" fill="#23BAB1" stroke="#23BAB1"></path>
  <path d="M19.6798 14.1797C18.8205 15.0219 19.422 16.5 20.6252 16.5C21.3298 16.5 22.0002 15.8297 22.0002 15.125C22.0002 14.4203 21.3298 13.75 20.6252 13.75C20.2986 13.75 19.9377 13.9047 19.6798 14.1797Z" fill="#23BAB1" stroke="#23BAB1"></path>
  <path d="M8.67969 30.6797C8.40469 30.9375 8.25 31.2984 8.25 31.625C8.25 31.9516 8.40469 32.3125 8.67969 32.5703L9.09219 33H17.875H26.6578L27.0703 32.5703C27.3453 32.3125 27.5 31.9516 27.5 31.625C27.5 31.2984 27.3453 30.9375 27.0703 30.6797L26.6578 30.25H17.875H9.09219L8.67969 30.6797Z" fill="#23BAB1" stroke="#23BAB1"></path>
  <path d="M8.67969 36.1797C8.40469 36.4375 8.25 36.7984 8.25 37.125C8.25 37.4516 8.40469 37.8125 8.67969 38.0703L9.09219 38.5H13.75H18.4078L18.8203 38.0703C19.3875 37.5203 19.3875 36.7297 18.8203 36.1797L18.4078 35.75H13.75H9.09219L8.67969 36.1797Z" fill="#23BAB1" stroke="#23BAB1"></path>
  <path d="M35.7328 37.0222C32.4328 38.0706 32.175 38.191 32.0375 38.7753C31.9688 39.0331 32.0547 40.391 32.2266 41.8175C32.5703 44.791 32.7594 44.2925 30.7656 45.7191C30.1641 46.1488 29.5969 46.4753 29.4938 46.441C29.4078 46.4066 28.325 45.9253 27.1047 45.3581C24.8531 44.3269 24.1828 44.1722 23.6844 44.5503C23.5297 44.6706 22.6188 45.8566 21.6734 47.18C20.2984 49.0706 19.9375 49.7066 19.9375 50.1535C19.9375 50.7378 20.1609 51.03 22.7047 53.7113L23.6844 54.7425L23.1172 56.4613L22.55 58.18L19.8344 58.7128C17.6344 59.1597 17.0672 59.3316 16.8094 59.641C16.5344 59.9847 16.5 60.3972 16.5 63.2503C16.5 66.1035 16.5344 66.516 16.8094 66.8597C17.0672 67.1691 17.6344 67.341 19.8516 67.7878L22.5844 68.3378L22.9109 69.4378C23.375 71.0706 24.3891 71.7753 25.3 71.0878C25.9359 70.6066 25.9531 70.0738 25.4547 68.2519C25.1797 67.3066 24.8703 66.4128 24.75 66.2581C24.4922 65.9488 23.8906 65.7769 21.2781 65.2785L19.25 64.8831V63.2503V61.6175L21.6734 61.1535C23.0141 60.8956 24.2859 60.5691 24.5094 60.4144C24.7672 60.2425 25.0078 59.8128 25.1797 59.1597C25.3344 58.6269 25.6953 57.5269 25.9875 56.7191C26.9156 54.141 26.95 54.2956 24.8359 51.9925L22.9969 50.016L23.9078 48.7613C24.4062 48.091 24.8359 47.4894 24.8703 47.455C24.9047 47.4206 25.9703 47.8503 27.2422 48.4347C28.5141 49.0191 29.7688 49.5003 30.0438 49.5003C30.3703 49.5003 30.8172 49.2425 31.4703 48.6925C31.9859 48.2628 32.9828 47.5238 33.6875 47.0597C34.3922 46.5956 35.0797 46.0285 35.2 45.7878C35.3891 45.4441 35.3719 44.9456 35.1313 42.8831C34.9594 41.3706 34.8906 40.3222 34.9937 40.2363C35.1484 40.0816 37.8469 39.1535 37.9156 39.2394C37.9328 39.2566 38.4656 40.2019 39.0844 41.3363C39.7203 42.4706 40.4078 43.5535 40.6141 43.7425C40.975 44.0691 41.2328 44.0863 44.0516 44.0863C46.8359 44.0691 47.1281 44.0347 47.4375 43.7253C47.6094 43.5535 48.2797 42.4706 48.9156 41.3363C49.5516 40.2019 50.0844 39.2566 50.1016 39.2394C50.1531 39.1535 52.8516 40.0816 53.0063 40.2363C53.1094 40.3222 53.0406 41.3706 52.8688 42.866C52.525 45.7878 52.5766 46.0113 53.8656 46.7503C54.3469 47.0253 55.3781 47.7472 56.1516 48.366C57.0797 49.1222 57.6984 49.5003 58.0078 49.5003C58.2484 49.5003 59.5031 49.0191 60.775 48.4519C62.0469 47.8675 63.1125 47.4206 63.1297 47.455C63.1641 47.4894 63.5938 48.091 64.0922 48.7613L65.0031 50.016L63.1813 51.9753C61.8234 53.4535 61.3594 54.0722 61.3594 54.416C61.3594 54.6566 61.6344 55.5847 61.9609 56.4785C62.2875 57.355 62.6484 58.4894 62.7516 58.9706C63.0609 60.38 63.3188 60.5519 66.2234 61.1019L68.75 61.6003V63.2503V64.9003L66.2234 65.3988C63.3188 65.9488 63.0609 66.1206 62.7516 67.53C62.6484 68.0113 62.2875 69.1456 61.9609 70.0222C61.6344 70.916 61.3594 71.8441 61.3594 72.0847C61.3594 72.4113 61.8063 73.0128 62.9922 74.3191C65.5703 77.155 65.9828 77.3956 66.9281 76.6394C67.2547 76.3816 67.375 76.1238 67.375 75.7113C67.375 75.0753 67.0656 74.6456 65.2953 72.7894L64.3156 71.7581L64.8828 70.0394L65.45 68.3378L68.1484 67.7878C70.3828 67.3581 70.9156 67.1863 71.1906 66.8597C71.4656 66.516 71.5 66.1206 71.5 63.2503C71.5 60.38 71.4656 59.9847 71.1906 59.641C70.9328 59.3144 70.3828 59.1425 68.1656 58.6956L65.45 58.1456L64.8828 56.4613L64.3156 54.7597L66.1891 52.7488C67.7875 51.0128 68.0625 50.6347 68.0625 50.1535C68.0625 49.7066 67.6844 49.0535 66.2578 47.0941C65.2609 45.7363 64.35 44.5675 64.2297 44.4816C63.7656 44.1894 62.9922 44.3956 60.8094 45.3925C59.5547 45.9769 58.4547 46.4581 58.3516 46.4581C58.025 46.4581 55.5156 44.4644 55.5156 44.1894C55.5156 44.0347 55.6359 42.8144 55.8078 41.4566C56.0312 39.4113 56.0484 38.9472 55.8594 38.5863C55.6016 38.105 55.1203 37.8988 51.8031 36.8675C49.8953 36.2831 49.3453 36.1628 48.95 36.3003C48.5891 36.4378 48.1938 36.9706 47.1453 38.8613L45.8047 41.2503H44C42.1953 41.2503 42.1781 41.2503 41.9203 40.7691C41.7656 40.5113 41.1641 39.4456 40.5625 38.38C39.7547 36.9363 39.3766 36.4206 39.0156 36.3003C38.6547 36.1628 38.0016 36.3175 35.7328 37.0222Z" fill="#23BAB1" stroke="#23BAB1"></path>
  <path d="M41.4217 49.7416C35.6983 50.9619 31.5905 55.1213 30.4905 60.8104C30.0436 63.1307 30.2155 65.2104 31.0405 67.7369C31.4873 69.0947 32.467 70.9166 32.9483 71.2776C33.3951 71.6213 34.3233 71.5526 34.7186 71.1572C35.2342 70.6416 35.1483 70.0401 34.2889 68.3213C32.5873 64.9526 32.5701 61.5838 34.2373 58.2666C34.7701 57.201 35.303 56.4791 36.1795 55.6026C38.2764 53.5057 40.5451 52.4744 43.3983 52.3026C49.9295 51.9244 55.3264 57.3213 54.9483 63.8526C54.7764 66.7229 53.7451 68.9744 51.6311 71.0713C49.7061 72.9963 46.8358 74.2338 44.292 74.251C43.6561 74.251 43.3811 74.3369 43.0545 74.6807C42.4701 75.2479 42.4873 76.0213 43.0717 76.6057C43.5014 77.0354 43.5701 77.0526 44.9108 76.9494C49.2936 76.6229 53.1092 74.3713 55.5326 70.676C57.0451 68.3729 57.6639 66.2416 57.6639 63.251C57.6639 60.2604 57.0451 58.1291 55.5326 55.826C53.5905 52.8526 50.8233 50.876 47.2655 49.8963C45.9248 49.5354 42.7967 49.4494 41.4217 49.7416Z" fill="black" stroke="black"></path>
</svg>
