<?xml version="1.0" encoding="UTF-8"?>
<svg xmlns="http://www.w3.org/2000/svg" width="72" height="72" viewBox="0 0 72 72" fill="none">
  <path d="M1.61758 0.267189C0.942578 0.576561 0.506641 1.02657 0.211328 1.71563C0.0285156 2.16563 0.000390626 3.2625 0.000390626 9.52031C0.000390626 16.2984 0.0285156 16.8469 0.267578 17.3672C0.576953 18.0422 1.02695 18.4781 1.71602 18.7734C2.13789 18.9422 2.85508 18.9844 5.34414 18.9844H8.43789V26.6063C8.45195 34.8328 8.42383 34.5797 9.19727 34.875C9.45039 34.9594 12.0379 35.0156 16.4676 35.0156H23.3441V37.2656V39.5156H22.7113C22.177 39.5156 22.0504 39.4594 21.8395 39.1219C21.0941 37.9266 20.2363 37.4062 18.9848 37.4062C17.1566 37.4062 15.891 38.6719 15.891 40.5C15.891 42.2859 17.1707 43.5938 18.9145 43.5938C20.166 43.5938 21.2348 43.0031 21.741 42.0188C21.9238 41.6672 22.0223 41.625 22.627 41.625H23.302L23.3723 43.8609C23.4285 46.0266 23.4426 46.1109 23.8645 46.8422C24.1738 47.3906 24.4832 47.7281 25.0035 48.0375C25.8754 48.5578 26.4941 48.6562 29.2926 48.6562H31.3598V54.9141V61.1719H25.1723H18.9848V58.2188C18.9848 55.8563 18.9426 55.1531 18.7738 54.7313C18.4785 54.0422 18.0426 53.5922 17.3676 53.2828C16.8473 53.0438 16.2988 53.0156 9.49258 53.0156C2.68633 53.0156 2.13789 53.0438 1.61758 53.2828C0.942578 53.5922 0.506641 54.0422 0.211328 54.7313C-0.112109 55.5188 -0.112109 69.4969 0.211328 70.2844C0.506641 70.9734 0.942578 71.4234 1.61758 71.7328C2.13789 71.9719 2.68633 72 9.49258 72C16.2988 72 16.8473 71.9719 17.3676 71.7328C18.0426 71.4234 18.4785 70.9734 18.7738 70.2844C18.9426 69.8625 18.9848 69.1313 18.9848 66.5297V63.2953L25.9457 63.2531L32.8926 63.2109L33.216 62.8875L33.5395 62.5641L33.5816 55.6172L33.6238 48.6562H36.4223H39.2348V50.9766V53.2828L38.8551 53.4937C37.8566 54.0141 37.266 55.0406 37.266 56.25C37.266 58.0781 38.5316 59.3438 40.3598 59.3438C42.1879 59.3438 43.4535 58.0781 43.4535 56.25C43.4535 55.0406 42.8629 54.0141 41.8785 53.4937L41.4848 53.2828V50.9906V48.6984L43.777 48.6281C46.027 48.5719 46.0973 48.5578 46.8426 48.1359C47.7848 47.6156 48.4316 46.6313 48.5582 45.5344C48.6145 45.1266 48.6566 43.2844 48.6566 41.4422V38.1094H55.0551H61.4535V45.5625V53.0156H58.3316C55.5895 53.0156 55.1254 53.0578 54.6332 53.2828C53.3395 53.8734 53.016 54.6328 53.016 57.0656C53.016 58.6828 53.0441 58.8938 53.2973 59.175C53.691 59.5969 54.4504 59.5969 54.8441 59.175C55.0973 58.9078 55.1254 58.6828 55.1254 57.1641C55.1254 56.025 55.1816 55.4062 55.2941 55.2938C55.4207 55.1672 57.2207 55.125 62.5363 55.125C69.3707 55.125 69.6098 55.1391 69.7504 55.3922C69.8348 55.575 69.891 58.0781 69.891 62.5641C69.891 68.6391 69.8629 69.4688 69.666 69.6656C69.4691 69.8625 68.6395 69.8906 62.5645 69.8906C58.0785 69.8906 55.5754 69.8344 55.3926 69.75C55.1395 69.6094 55.1254 69.4125 55.1254 66.15C55.1254 64.2094 55.0691 62.5922 54.9848 62.4516C54.9145 62.3109 54.6754 62.1141 54.4363 62.0297C54.0988 61.8891 53.9582 61.8891 53.6066 62.0719C53.3816 62.1844 53.1566 62.3953 53.1004 62.5078C53.0582 62.6344 53.016 64.3359 53.016 66.2766C53.016 70.1297 53.0863 70.5375 53.8738 71.2547C54.6895 72 54.6895 72 62.5363 72C69.3145 72 69.8629 71.9719 70.3832 71.7328C71.0582 71.4234 71.4941 70.9734 71.7895 70.2844C71.9723 69.8344 72.0004 68.7375 72.0004 62.4797C72.0004 55.7016 71.9723 55.1531 71.7332 54.6328C71.4238 53.9578 70.9738 53.5219 70.2848 53.2266C69.8629 53.0578 69.1457 53.0156 66.6566 53.0156H63.5629V44.8594V36.6891L63.2113 36.3516L62.8738 36H55.7582H48.6566V34.2422V32.4844H51.1598H53.6488L53.9301 33.0047C54.0848 33.3 54.4926 33.7219 54.816 33.9609C55.3785 34.3406 55.5332 34.3828 56.5879 34.3828C57.6145 34.3828 57.8113 34.3406 58.3316 34.0031C60.1738 32.7797 60.1738 29.9391 58.3316 28.7156C57.8113 28.3781 57.6145 28.3359 56.5879 28.3359C55.5191 28.3359 55.3785 28.3641 54.816 28.7578C54.4926 28.9969 54.0707 29.4609 53.8879 29.7844L53.5645 30.375H51.1316H48.6988L48.6285 28.1391C48.5723 25.9734 48.5582 25.8891 48.1363 25.1578C47.827 24.5953 47.5176 24.2859 46.9691 23.9344L46.2098 23.4844H43.8473H41.4848V17.0156V10.5469H47.2504H53.016V13.6688C53.016 17.0719 53.1145 17.5359 53.8738 18.2391C54.6895 18.9844 54.7035 18.9844 62.5082 18.9844C68.7379 18.9844 69.8348 18.9563 70.2848 18.7734C70.9738 18.4781 71.4238 18.0422 71.7332 17.3672C71.9723 16.8469 72.0004 16.2984 72.0004 9.49219C72.0004 2.68594 71.9723 2.1375 71.7332 1.61719C71.4238 0.942192 70.9738 0.506248 70.2848 0.210938C69.8348 0.0281296 68.7379 0 62.5082 0C54.7035 0 54.6895 0 53.8738 0.745316C53.1145 1.44844 53.016 1.9125 53.016 5.30157V8.4375H46.5191C39.3754 8.45156 39.6285 8.42344 39.3754 9.29531C39.291 9.57656 39.2348 12.6562 39.2348 16.6219V23.4844H36.4223H33.6098V21.375V19.2797L34.0035 19.0688C35.7895 18.1266 36.141 15.4406 34.6363 14.0484C33.9895 13.4438 33.4129 13.2188 32.4848 13.2188C30.6566 13.2188 29.391 14.4844 29.391 16.3125C29.391 17.5219 29.9816 18.5484 30.9801 19.0688L31.3598 19.2797V21.375V23.4844H28.5754H25.791L25.0316 23.9344C24.4832 24.2859 24.1738 24.5953 23.8504 25.1719L23.4145 25.9453L23.3582 29.4188L23.316 32.9062H16.9316H10.5473V25.9453V18.9844H13.6832C16.4113 18.9844 16.8754 18.9422 17.3676 18.7172C18.6613 18.1266 18.9848 17.3672 18.9848 14.9344C18.9848 13.3172 18.9566 13.1063 18.7035 12.825C18.3098 12.4031 17.5504 12.4031 17.1566 12.825C16.9035 13.0922 16.8754 13.3172 16.8754 14.7797C16.8754 16.1016 16.8332 16.4813 16.6504 16.65C16.4535 16.8469 15.6238 16.875 9.54883 16.875C5.06289 16.875 2.55977 16.8188 2.37695 16.7344C2.12383 16.5938 2.10977 16.3547 2.10977 9.52031C2.10977 4.20469 2.15195 2.40469 2.27852 2.27813C2.40508 2.15157 4.20508 2.10938 9.5207 2.10938C16.3551 2.10938 16.5941 2.12344 16.7348 2.37656C16.8191 2.54531 16.8754 3.96563 16.8754 6.00469C16.8754 9.19688 16.8895 9.37969 17.1566 9.675C17.3535 9.87188 17.6207 9.98438 17.9301 9.98438C18.2395 9.98438 18.5066 9.87188 18.7035 9.675C18.9707 9.37969 18.9848 9.19688 18.9848 5.80782C18.9848 2.91094 18.9426 2.1375 18.7738 1.71563C18.4785 1.02657 18.0426 0.576561 17.3676 0.267189C16.8473 0.0281296 16.2988 0 9.49258 0C2.68633 0 2.13789 0.0281296 1.61758 0.267189ZM69.7504 2.37656C69.8348 2.55938 69.891 5.0625 69.891 9.54844C69.891 15.6234 69.8629 16.4531 69.666 16.65C69.4691 16.8469 68.6395 16.875 62.5645 16.875C58.0785 16.875 55.5754 16.8188 55.3926 16.7344C55.1395 16.5938 55.1254 16.3547 55.1254 9.52031C55.1254 4.20469 55.1676 2.40469 55.2941 2.27813C55.4207 2.15157 57.2207 2.10938 62.5363 2.10938C69.3707 2.10938 69.6098 2.12344 69.7504 2.37656ZM33.216 15.5672C33.5395 15.8484 33.5535 16.6922 33.2301 17.0438C32.9488 17.3672 32.1051 17.3813 31.7535 17.0578C31.4301 16.7766 31.416 15.9328 31.7395 15.5813C32.0207 15.2578 32.8645 15.2438 33.216 15.5672ZM46.0832 25.9031L46.4066 26.1984V36V45.8016L46.041 46.1391L45.6754 46.4766H36.0004H26.3254L25.9598 46.1391L25.5941 45.8016V36.0141V26.2406L25.9035 25.9172L26.1988 25.5938H35.9863H45.7598L46.0832 25.9031ZM57.3613 30.7406C57.5301 30.9516 57.6566 31.2188 57.6566 31.3594C57.6566 31.5 57.5301 31.7672 57.3613 31.9781C56.7848 32.7094 55.5473 32.3016 55.5473 31.3594C55.5473 30.4172 56.7848 30.0094 57.3613 30.7406ZM19.716 39.7547C20.0395 40.0359 20.0535 40.8797 19.7301 41.2313C19.4488 41.5547 18.6051 41.5688 18.2535 41.2453C17.9301 40.9641 17.916 40.1203 18.2395 39.7687C18.5207 39.4453 19.3645 39.4313 19.716 39.7547ZM16.7348 55.3922C16.8191 55.575 16.8754 58.0781 16.8754 62.5641C16.8754 68.6391 16.8473 69.4688 16.6504 69.6656C16.4535 69.8625 15.6238 69.8906 9.54883 69.8906C5.06289 69.8906 2.55977 69.8344 2.37695 69.75C2.12383 69.6094 2.10977 69.3703 2.10977 62.5359C2.10977 57.2203 2.15195 55.4203 2.27852 55.2938C2.40508 55.1672 4.20508 55.125 9.5207 55.125C16.3551 55.125 16.5941 55.1391 16.7348 55.3922ZM41.091 55.5047C41.4145 55.7859 41.4285 56.6297 41.1051 56.9813C40.8238 57.3047 39.9801 57.3188 39.6285 56.9953C39.3051 56.7141 39.291 55.8703 39.6145 55.5188C39.8957 55.1953 40.7395 55.1812 41.091 55.5047Z" fill="black" stroke="black" stroke-width="0.6"></path>
  <path d="M58.05 4.44414C57.2766 4.85195 57.2344 5.10508 57.2344 9.49258C57.2344 13.9082 57.2766 14.1332 58.0781 14.5551C58.6828 14.8645 66.3328 14.8645 66.9375 14.5551C67.7391 14.1332 67.7812 13.9082 67.7812 9.49258C67.7812 5.07695 67.7391 4.85195 66.9375 4.43008C66.3469 4.1207 58.6266 4.1207 58.05 4.44414ZM65.6719 9.49258V12.6566H62.5078H59.3438V9.49258V6.32852H62.5078H65.6719V9.49258Z" fill="#23BAB1"></path>
  <path d="M28.1398 28.1258C27.8305 28.4492 27.7039 28.7305 27.6336 29.293C27.5914 29.6867 27.5633 32.9914 27.5914 36.6336C27.6336 43.8898 27.6195 43.693 28.5055 44.1711C29.0539 44.4664 42.9476 44.4664 43.4961 44.1711C44.382 43.693 44.368 43.8898 44.4102 36.6336C44.4383 32.9914 44.4102 29.6867 44.368 29.293C44.2976 28.7305 44.1711 28.4492 43.8617 28.1258L43.4258 27.7039H41.7101C39.7555 27.7039 39.5164 27.8164 39.5164 28.7164C39.5164 29.4617 39.882 29.7008 41.1336 29.7852L42.1883 29.8555V36.0852V42.3289H36.0008H29.8133V36.0852V29.8273L33.1039 29.7852C36.0992 29.743 36.4226 29.7148 36.6898 29.4758C37.0695 29.1242 37.0976 28.2664 36.732 27.943C36.507 27.732 36.0008 27.7039 32.5133 27.7039H28.5758L28.1398 28.1258Z" fill="#23BAB1"></path>
  <path d="M5.03437 57.4598C4.26094 57.8676 4.21875 58.1207 4.21875 62.5082C4.21875 66.9238 4.26094 67.1488 5.0625 67.5707C5.66719 67.8801 13.3172 67.8801 13.9219 67.5707C14.7234 67.1488 14.7656 66.9238 14.7656 62.5082C14.7656 58.0926 14.7234 57.8676 13.9219 57.4457C13.3313 57.1363 5.61094 57.1363 5.03437 57.4598ZM12.6562 62.5082V65.6723H9.49219H6.32812V62.5082V59.3441H9.49219H12.6562V62.5082Z" fill="#23BAB1"></path>
  <path d="M5.03437 4.44414C4.26094 4.85195 4.21875 5.10508 4.21875 9.49258C4.21875 13.9082 4.26094 14.1332 5.0625 14.5551C5.66719 14.8645 13.3172 14.8645 13.9219 14.5551C14.7234 14.1332 14.7656 13.9082 14.7656 9.49258C14.7656 5.07695 14.7234 4.85195 13.9219 4.43008C13.3313 4.1207 5.61094 4.1207 5.03437 4.44414ZM12.6562 9.49258V12.6566H9.49219H6.32812V9.49258V6.32852H9.49219H12.6562V9.49258Z" fill="#23BAB1"></path>
  <path d="M58.05 57.4598C57.2766 57.8676 57.2344 58.1207 57.2344 62.5082C57.2344 66.9238 57.2766 67.1488 58.0781 67.5707C58.6828 67.8801 66.3328 67.8801 66.9375 67.5707C67.7391 67.1488 67.7812 66.9238 67.7812 62.5082C67.7812 58.0926 67.7391 57.8676 66.9375 57.4457C66.3469 57.1363 58.6266 57.1363 58.05 57.4598ZM65.6719 62.5082V65.6723H62.5078H59.3438V62.5082V59.3441H62.5078H65.6719V62.5082Z" fill="#23BAB1"></path>
</svg>
