<?xml version="1.0" encoding="UTF-8"?>
<svg xmlns="http://www.w3.org/2000/svg" width="77" height="77" viewBox="0 0 77 77" fill="none">
  <path d="M27.5039 0.641991C22.125 1.33808 17.3314 4.1541 14.2939 8.39394C12.8068 10.498 11.557 13.2191 11.209 15.1334C11.1299 15.5605 11.0033 15.7346 10.7502 15.782C10.5762 15.8137 9.99082 15.9402 9.46875 16.0352C5.64023 16.8103 2.34961 19.8004 1.05234 23.708C0.688477 24.8312 0.641016 25.2268 0.641016 27.1094C0.625195 28.9762 0.688477 29.4033 1.03652 30.4633C1.65352 32.3459 2.49199 33.6906 3.91582 35.1145C5.33965 36.5225 6.66855 37.3609 8.56699 38.0096L9.78516 38.4209L21.6187 38.4684L33.4365 38.5158V41.0312V43.5309L29.5289 43.5941L25.6055 43.6416L24.5455 44.1479C23.0742 44.8439 22.1566 45.7299 21.4447 47.1695L20.8594 48.3719L20.7803 57.8641C20.6854 68.5902 20.7645 67.9891 19.4197 69.1756C18.4072 70.0615 17.9484 70.1406 14.0092 70.1406H10.5129L10.1332 69.3021C9.65859 68.258 8.85176 67.4354 7.76016 66.8658C7.06406 66.502 6.73184 66.4387 5.59277 66.4229C3.99492 66.4229 3.07734 66.7867 1.98574 67.8941C0.957422 68.9225 0.609375 69.7926 0.609375 71.4062C0.609375 73.0199 0.957422 73.89 1.98574 74.9184C3.0457 75.9783 3.99492 76.3738 5.51367 76.3896C6.55781 76.3896 6.9375 76.3105 7.66523 75.9783C8.77266 75.4562 9.64277 74.602 10.1332 73.5262L10.5129 72.7035L14.4996 72.6402L18.4863 72.5928L19.5463 72.0865C21.0176 71.3904 21.9352 70.5045 22.6471 69.0648L23.2324 67.8625L23.3115 58.3703C23.4064 47.6441 23.3273 48.2453 24.6721 47.0588C25.6687 46.1728 26.1434 46.0937 30.0193 46.0937H33.4365V50.1596C33.4365 53.9723 33.4523 54.257 33.7687 54.9057C34.1484 55.7125 35.1135 56.4877 36.3475 57.0256L37.2334 57.4053V65.6635V73.9375H35.335H33.4365V75.2031V76.4688H36.2051C38.942 76.4688 38.9894 76.4688 39.3691 76.0732L39.7646 75.6936V66.8975C39.7646 58.5918 39.7805 58.1014 40.0494 58.1805C40.3975 58.2754 42.375 58.5443 43.7672 58.6709L44.8271 58.7816V65.3312V71.8967L45.2227 72.2764L45.6023 72.6719H51.6141H57.6258L58.0055 73.5104C58.4801 74.5545 59.2869 75.3771 60.3785 75.9467C61.0746 76.3105 61.4068 76.3738 62.5459 76.3738C64.1437 76.3896 65.0613 76.01 66.1529 74.9184C67.1812 73.89 67.5293 73.0199 67.5293 71.4062C67.5293 69.7926 67.1812 68.9225 66.1529 67.8941C65.0613 66.8025 64.1437 66.4229 62.5459 66.4387C61.4068 66.4387 61.0746 66.502 60.3785 66.8658C59.2869 67.4354 58.4801 68.258 58.0055 69.3021L57.6258 70.1406H52.4842H47.3584V64.4453C47.3584 59.1139 47.3742 58.75 47.6432 58.75C48.4342 58.75 52.0412 58.2437 53.1803 57.959C54.7148 57.5951 56.6133 56.7566 57.4834 56.0605C58.4484 55.3012 58.749 54.4943 58.749 52.6908V51.1562H60.8848C62.9572 51.1562 63.0521 51.1721 63.416 51.5518L63.8115 51.9314V57.4844V63.0373L64.207 63.417C64.5867 63.8125 64.5867 63.8125 68.0039 63.8125H71.4053V62.5469V61.2812H68.874H66.3428V56.5984C66.3428 53.3711 66.2795 51.6941 66.1529 51.2512C65.8998 50.3811 64.5867 49.068 63.7166 48.8148C63.3369 48.7041 62.1346 48.625 60.9006 48.625H58.749V43.5783V38.5316L62.9889 38.4684C67.0072 38.4051 67.2762 38.3734 68.4311 37.9937C70.3137 37.3609 71.6584 36.5383 73.0822 35.1145C74.5061 33.6906 75.3445 32.3459 75.9615 30.4633C76.3096 29.4033 76.3728 28.9762 76.3728 27.1094C76.3728 25.2426 76.3096 24.8154 75.9615 23.7555C75.3445 21.8728 74.5061 20.5281 73.0822 19.1043C71.6426 17.6805 70.2978 16.842 68.4311 16.225C67.4185 15.9086 66.7857 15.8295 64.824 15.7504L62.4193 15.6713L62.3244 14.9277C62.0396 12.8078 60.9164 10.7354 59.0812 8.91602C57.5783 7.4289 56.3127 6.66953 54.3193 6.05254C52.8006 5.57793 49.8896 5.53046 48.3551 5.9418C47.3584 6.22656 45.7131 6.93848 44.9695 7.4289L44.5582 7.69785L43.3875 6.47968C39.7963 2.69863 34.5914 0.483788 29.4814 0.562889C28.6588 0.562889 27.7729 0.610352 27.5039 0.641991ZM32.2658 3.2998C38.5148 4.37558 43.3717 8.59961 45.3176 14.6113C45.5549 15.3549 45.7922 15.9402 45.8396 15.9402C45.9029 15.9244 46.4092 15.8295 46.9787 15.7187C47.5482 15.608 48.0545 15.434 48.0861 15.3391C48.1969 15.0385 47.2477 12.2857 46.5832 11.0201L45.9662 9.83359L46.6939 9.3748C47.9437 8.58379 49.4309 8.2041 51.2344 8.2041C53.7182 8.21992 55.6799 9.02676 57.4359 10.7828C59.4926 12.8395 60.426 15.9561 59.8406 18.7562C59.635 19.7055 58.9389 21.335 58.4168 22.0627C58.2428 22.3158 58.1004 22.5531 58.132 22.5848C58.1637 22.6006 58.6066 22.9645 59.1287 23.36L60.0463 24.1193L60.4418 23.5973C61.3436 22.3791 62.3877 19.7055 62.3877 18.6139C62.3877 18.25 62.4193 18.25 64.0963 18.25C66.3586 18.25 67.4185 18.4557 68.9848 19.215C72.4019 20.8603 74.3637 24.5781 73.81 28.3908C73.3986 31.2385 71.5318 33.7855 68.9689 35.0195C67.2287 35.8422 66.3902 35.9688 62.2769 35.9688H58.749V34.7031V33.4375H60.8848C62.9572 33.4375 63.0521 33.4217 63.416 33.042C63.8115 32.6623 63.8115 32.6148 63.8115 29.8779V27.1094H64.4443H65.0771V25.8437V24.5781H63.5742C62.182 24.5781 62.0238 24.6098 61.6758 24.9736C61.2803 25.3533 61.2803 25.4008 61.2803 28.1377V30.9062H60.0463H58.8123L58.6225 30.1943C58.0846 28.1852 54.8889 26.6822 49.8896 26.0811C48.798 25.9545 47.7855 25.8437 47.6432 25.8437C47.39 25.8437 47.3584 25.6697 47.3584 24.325C47.3584 22.3 47.1527 21.6672 46.1719 20.7021C45.0644 19.5947 44.7322 19.5156 40.5873 19.5156H37.091L36.7113 18.6771C36.2367 17.633 35.4299 16.8103 34.3383 16.2408C33.6422 15.8769 33.31 15.8137 32.1709 15.7978C30.573 15.7978 29.6555 16.1617 28.5639 17.2691C27.5355 18.2975 27.1875 19.1676 27.1875 20.7812C27.1875 22.3949 27.5355 23.265 28.5639 24.2934C29.6238 25.3533 30.573 25.7488 32.0918 25.7646C33.1359 25.7646 33.5156 25.6855 34.2434 25.3533C35.3508 24.8312 36.2209 23.977 36.7113 22.8853L37.091 22.0469H40.5715H44.0519L44.4316 22.4424C44.7955 22.7904 44.8271 22.9486 44.8271 24.3408C44.8271 25.7963 44.8113 25.8437 44.4791 25.8437C43.4982 25.8596 40.2551 26.3342 39.0211 26.6348C37.4074 27.0461 35.5723 27.8371 34.7021 28.5332C33.5947 29.4191 33.4365 29.9729 33.4365 33.1686V35.9688H22.3148C15.1166 35.9688 10.8609 35.9055 10.2439 35.7947C8.69355 35.5258 6.87422 34.5449 5.6877 33.3426C2.22305 29.8937 2.22305 24.325 5.6877 20.8762C8.59863 17.9494 13.1865 17.4432 16.6512 19.658C17.6637 20.3225 19.1508 21.9045 19.7203 22.9486C20.1791 23.8029 20.7803 25.907 20.7803 26.6664V27.1094H22.0617H23.359L23.2482 26.1443C22.8369 22.1418 20.4797 18.7088 16.9359 16.9369C16.3031 16.6205 15.3223 16.2566 14.7369 16.0984C14.1357 15.9561 13.6611 15.7504 13.6611 15.6555C13.6611 15.26 14.4205 13.235 15.0059 12.0801C15.8602 10.3715 16.7619 9.16914 18.2965 7.69785C21.0492 5.05585 23.7387 3.79023 27.8994 3.15742C28.8803 3.01504 30.9844 3.07832 32.2658 3.2998ZM33.215 18.5031C34.8445 19.2783 35.1926 21.2717 33.927 22.5373C32.1551 24.325 29.2441 22.7271 29.7029 20.2275C29.9877 18.7088 31.7912 17.8228 33.215 18.5031ZM50.918 28.7547C51.709 28.8971 52.9271 29.1977 53.6549 29.4191C54.9047 29.8146 56.2178 30.574 56.2178 30.9062C56.2178 31.2385 54.9047 31.9978 53.6549 32.3934C51.266 33.1369 49.6365 33.3426 46.0928 33.3426C42.549 33.3426 40.9195 33.1369 38.5307 32.3934C37.2967 31.9978 35.9678 31.2385 35.9678 30.9062C35.9678 30.4316 37.882 29.4982 39.7488 29.0711C42.818 28.3434 47.833 28.201 50.918 28.7547ZM40.6031 35.5258C42.027 35.8422 42.6756 35.8738 46.0928 35.8738C50.4275 35.8738 51.6932 35.6998 54.699 34.6557L56.2178 34.1178V36.3959V38.6582L55.585 39.117C54.8414 39.6549 52.8955 40.2877 50.8389 40.6674C48.7348 41.0471 43.4508 41.0471 41.3467 40.6674C39.29 40.2877 37.3441 39.6549 36.6006 39.117L35.9678 38.6582V36.3959V34.1178L37.4865 34.6557C38.325 34.9404 39.733 35.3359 40.6031 35.5258ZM40.5873 43.1195C42.027 43.4359 42.6756 43.4676 46.0928 43.4676C50.4275 43.4676 51.6932 43.2936 54.699 42.2494L56.2178 41.7115V43.9896V46.252L55.585 46.7107C54.8414 47.2486 52.8955 47.8814 50.8389 48.2611C48.7348 48.6408 43.4508 48.6408 41.3467 48.2611C39.29 47.8814 37.3441 47.2486 36.6006 46.7107L35.9678 46.252V43.9738V41.6957L37.4707 42.2336C38.2934 42.5184 39.7014 42.9297 40.5873 43.1195ZM40.6031 50.7133C42.027 51.0297 42.6756 51.0613 46.0928 51.0613C50.4275 51.0613 51.6932 50.8873 54.699 49.8432L56.2178 49.3053V51.5834V53.8457L55.585 54.3045C54.8414 54.8424 52.8955 55.4752 50.8389 55.8549C48.7348 56.2346 43.4508 56.2346 41.3467 55.8549C39.29 55.4752 37.3441 54.8424 36.6006 54.3045L35.9678 53.8457V51.5834V49.3053L37.4865 49.8432C38.325 50.1279 39.733 50.5234 40.6031 50.7133ZM6.58945 69.0965C8.21894 69.7768 8.61445 71.8967 7.34883 73.1623C6.32051 74.1906 4.86504 74.1906 3.83672 73.1623C1.875 71.2164 4.04238 68.0207 6.58945 69.0965ZM63.9381 69.3021C64.7291 69.9033 64.998 70.4096 64.998 71.3904C64.998 72.134 64.9189 72.4029 64.5709 72.8617C63.4635 74.3172 61.5334 74.2697 60.426 72.7668C59.9197 72.0865 59.9672 70.6785 60.5209 69.9508C60.7582 69.6502 61.1853 69.2863 61.4701 69.1281C62.1346 68.7959 63.3685 68.875 63.9381 69.3021Z" fill="black" stroke="black" stroke-width="0.3"></path>
  <path d="M10.4338 20.9551C9.45293 21.1924 8.01328 22.0309 7.31719 22.7902C6.96914 23.1699 6.44707 23.9609 6.17813 24.5463C5.71934 25.5113 5.67188 25.7486 5.67188 27.125C5.67188 28.5488 5.70352 28.6912 6.25723 29.8303C6.96914 31.2699 7.88672 32.1559 9.35801 32.852L10.418 33.3582L16.2398 33.4057L22.0459 33.4531V32.1875V30.9061H16.7303C13.0125 30.9061 11.209 30.8428 10.7502 30.7162C9.38965 30.3049 8.12402 28.5646 8.12402 27.1092C8.12402 25.2898 9.95918 23.3123 11.6678 23.3123C11.8734 23.3123 11.9209 23.1066 11.9209 22.0467V20.7811L11.4938 20.7969C11.2406 20.8127 10.7818 20.876 10.4338 20.9551Z" fill="#23BAB1" stroke="#23BAB1"></path>
  <path d="M67.6094 25.8438V27.1094H68.875H70.1406V25.8438V24.5781H68.875H67.6094V25.8438Z" fill="#23BAB1" stroke="#23BAB1"></path>
  <path d="M73.9375 62.5469V63.8125H75.2031H76.4688V62.5469V61.2812H75.2031H73.9375V62.5469Z" fill="#23BAB1" stroke="#23BAB1"></path>
  <path d="M28.375 75.2031V76.4688H29.6406H30.9062V75.2031V73.9375H29.6406H28.375V75.2031Z" fill="#23BAB1" stroke="#23BAB1"></path>
</svg>
