<?xml version="1.0" encoding="UTF-8"?>
<svg xmlns="http://www.w3.org/2000/svg" width="71" height="77" viewBox="0 0 71 77" fill="none">
  <path d="M5.00723 0.632233C3.30508 1.08614 1.89473 2.35059 1.29492 3.92305C0.970703 4.78223 0.970703 5.13887 0.970703 38.501C0.970703 71.9928 0.970703 72.2197 1.29492 73.0951C1.76504 74.3271 2.72148 75.3484 4.01836 75.9807L5.10449 76.5156H25.125H45.1455L46.0533 76.0941C47.2854 75.5105 48.2094 74.6352 48.7443 73.549L49.1982 72.625L49.2793 67.6807L49.3604 62.7363L57.9521 62.6553C66.5439 62.5742 66.5439 62.5742 67.3059 62.2014C67.7273 61.9906 68.392 61.4557 68.7973 61.018C70.1266 59.5428 70.0293 61.1963 70.0293 38.501C70.0293 15.8057 70.1266 17.4592 68.7973 15.984C68.392 15.5463 67.7273 15.0113 67.3059 14.8006C66.5439 14.4277 66.5439 14.4277 57.9521 14.3467L49.3604 14.2656L49.2793 9.3213L49.1982 4.37696L48.7443 3.45293C48.2094 2.36681 47.2854 1.49142 46.0533 0.907822L45.1455 0.486336L25.4492 0.453911C10.1623 0.437706 5.59082 0.470123 5.00723 0.632233ZM13.599 7.18145C14.8473 9.64552 15.3174 10.4398 15.6416 10.5857C15.9496 10.7316 18.5109 10.7803 25.125 10.7803C31.7391 10.7803 34.3004 10.7316 34.6084 10.5857C34.9326 10.4398 35.4027 9.64552 36.651 7.18145L38.2721 3.97169H41.3521C44.7564 3.97169 45.1779 4.06895 45.6318 4.94434C45.8264 5.3334 45.875 6.20879 45.875 9.87247V14.3467L33.7654 14.3791C22.2395 14.4277 21.6072 14.444 21.0723 14.7357C19.9213 15.3518 19.3053 15.984 18.7703 17.0701L18.2354 18.1563V38.501V58.8457L18.7703 59.9318C19.3053 61.018 19.9213 61.6502 21.0723 62.2662C21.6072 62.558 22.2395 62.5742 33.7654 62.6229L45.875 62.6553V64.4385V66.2217H25.125H4.375V35.8262C4.375 8.99708 4.40742 5.36583 4.61816 4.94434C5.07207 4.06895 5.44492 3.9879 8.86543 3.97169H11.9779L13.599 7.18145ZM33.5223 5.67384L32.6631 7.37598H25.125H17.5869L16.7277 5.67384L15.8848 3.97169H25.125H34.3652L33.5223 5.67384ZM44.2377 20.1178C45.5994 22.825 46.1668 23.5545 47.4637 24.1867L48.3877 24.6406L57.5145 24.6893L66.625 24.7379V41.5162V58.3107L66.1549 58.7809L65.6848 59.251H44.2539C22.1422 59.251 22.4178 59.2672 21.9314 58.6188C21.6396 58.2459 21.6396 18.7561 21.9314 18.3832C22.4016 17.7672 22.5312 17.7672 32.9062 17.751H43.0381L44.2377 20.1178ZM66.1549 18.2211C66.5926 18.6588 66.625 18.7885 66.625 19.9232V21.1553H57.8549C52.1 21.1553 48.9875 21.0904 48.7768 20.9932C48.5336 20.8473 47.0098 18.1563 47.0098 17.832C47.0098 17.7834 51.2084 17.751 56.3473 17.751H65.6848L66.1549 18.2211ZM45.875 70.5986C45.875 71.166 45.7615 71.7982 45.6318 72.0576C45.0969 73.0951 46.3289 73.0303 25.125 73.0303C3.92109 73.0303 5.15313 73.0951 4.61816 72.0576C4.48848 71.7982 4.375 71.166 4.375 70.5986V69.626H25.125H45.875V70.5986Z" fill="black"></path>
  <path d="M29.5507 21.4146C28.9184 21.7226 28.4645 22.6142 28.6104 23.2627C28.7401 23.8625 29.3886 24.5109 29.9884 24.6406C30.653 24.7865 31.5284 24.3326 31.8364 23.668C31.9823 23.3762 32.0958 23.0519 32.0958 22.9385C32.0958 22.4521 31.5446 21.6416 31.0421 21.4146C30.3774 21.0904 30.1991 21.0904 29.5507 21.4146Z" fill="#23BAB1"></path>
  <path d="M36.5213 21.399C35.9863 21.626 35.5 22.3555 35.5 22.9391C35.5 23.5389 35.9863 24.2521 36.5861 24.4953C37.6885 24.9654 38.9043 24.1549 38.9043 22.9553C38.9043 22.2096 38.5314 21.6746 37.8344 21.3828C37.1859 21.1072 37.1697 21.1072 36.5213 21.399Z" fill="#23BAB1"></path>
  <path d="M29.4208 28.433C28.594 28.9355 25.3194 32.3885 25.2059 32.8748C24.9952 33.7016 25.287 34.1717 27.1999 36.117C29.1452 38.0785 29.6964 38.5 30.3448 38.5C30.9608 38.5 31.7227 37.9326 31.9173 37.3166C32.1929 36.5061 31.9335 36.0197 30.5069 34.5607L29.2587 33.3125L30.5069 32.048C31.1878 31.3672 31.8362 30.5891 31.9335 30.3297C32.1766 29.665 31.8686 28.8221 31.2202 28.433C30.588 28.0439 30.0368 28.0439 29.4208 28.433Z" fill="#23BAB1"></path>
  <path d="M39.8287 28.3862C39.4883 28.5645 38.9533 29.4885 37.4295 32.5362C35.7274 35.9405 35.4842 36.5241 35.5653 37.0266C35.6787 37.7885 36.2785 38.3397 37.0567 38.4532C38.1266 38.5991 38.4346 38.1776 40.5906 33.8331C42.4873 30.0073 42.5035 29.9424 42.309 29.3588C41.9686 28.3051 40.8176 27.8512 39.8287 28.3862Z" fill="#23BAB1"></path>
  <path d="M47.0095 28.2389C46.2314 28.5307 45.6964 29.6006 45.9558 30.395C46.0206 30.6057 46.6204 31.3352 47.2851 32.0323L48.5171 33.3129L47.2851 34.5936C45.972 35.9715 45.7937 36.312 45.9396 37.1063C46.1503 38.2573 47.4958 38.8247 48.5009 38.2087C48.8089 38.0141 49.8626 37.0415 50.8353 36.0364C53.4128 33.4102 53.4128 33.1995 50.9326 30.6706C48.6144 28.2876 47.966 27.8985 47.0095 28.2389Z" fill="#23BAB1"></path>
  <path d="M25.9841 45.6662C25.0601 46.1201 24.898 47.6439 25.7085 48.4059L26.13 48.7949H35.4999H44.8698L45.2913 48.4059C46.1181 47.6277 45.9398 46.1039 44.9671 45.65C44.4322 45.4068 26.5029 45.423 25.9841 45.6662Z" fill="#23BAB1"></path>
  <path d="M26.1463 52.5234C25.6113 52.7503 25.125 53.4798 25.125 54.0634C25.125 54.6632 25.6113 55.3765 26.1787 55.6197C27.0055 55.9601 57.7738 55.9601 58.5844 55.6197C59.2814 55.3279 59.6543 54.7929 59.6543 54.0634C59.6543 53.3339 59.2814 52.799 58.5844 52.5072C57.79 52.1667 26.9244 52.183 26.1463 52.5234Z" fill="#23BAB1"></path>
</svg>
