<?xml version="1.0" encoding="UTF-8"?>
<svg xmlns="http://www.w3.org/2000/svg" width="81" height="81" viewBox="0 0 81 81" fill="none">
  <path d="M35.5557 0.524654C34.9559 0.80024 34.4209 1.36762 34.1939 1.96743C34.0967 2.2268 34.0156 3.24809 34.0156 4.26938V6.10122L33.4158 6.19848C32.0865 6.44165 29.1361 7.34946 27.3691 8.06274L25.4887 8.82465L24.3863 7.30083C22.9273 5.30688 22.0033 4.82055 20.6578 5.38794C20.0418 5.64731 14.2707 9.79731 13.4602 10.5592C12.8604 11.1428 12.5523 12.0506 12.7145 12.8612C12.7631 13.1854 13.2818 14.0932 13.9141 14.9362L15.0002 16.4438L14.0438 17.5786C12.8117 19.0051 11.4014 20.9666 10.5098 22.4581C10.1207 23.1065 9.76406 23.6415 9.69922 23.6415C9.65059 23.6415 8.95352 23.4145 8.14297 23.1389C7.34863 22.8633 6.35977 22.6364 5.93828 22.6364C5.09531 22.6364 4.23613 23.0579 3.81465 23.7063C3.45801 24.225 0.945312 32.0387 0.945312 32.5899C0.945312 33.2221 1.30195 34.0165 1.80449 34.4704C2.03145 34.6811 3.0041 35.1188 3.96055 35.443L5.72754 36.0428L5.64648 37.0155C5.59785 37.5504 5.56543 39.1229 5.56543 40.5008C5.56543 41.8788 5.59785 43.4512 5.64648 43.9862L5.72754 44.9588L3.96055 45.5586C3.0041 45.8829 2.03145 46.3206 1.80449 46.5313C1.31816 46.9852 0.945312 47.7795 0.945312 48.3956C0.945312 48.6387 1.54512 50.6975 2.27461 52.967C3.76602 57.5547 4.00918 57.9762 5.32227 58.3329C5.9707 58.5112 6.18145 58.4788 7.89981 57.9276C9.40742 57.4413 9.79648 57.3602 9.89375 57.5385C11.2393 59.8567 13.7033 63.2934 14.1734 63.4717C14.2869 63.5204 14.7895 63.1961 15.2758 62.7747C16.1512 62.029 16.1674 61.9965 15.8918 61.6561C14.5625 59.9702 13.4277 58.3815 12.6658 57.0846C12.1633 56.2579 11.5473 55.4149 11.2717 55.2204C10.4611 54.653 9.47227 54.653 7.67285 55.2528C6.81367 55.5446 6.05176 55.7067 5.9707 55.6418C5.72754 55.3663 3.53906 48.5415 3.66875 48.428C3.73359 48.3631 4.43066 48.12 5.20879 47.8768C6.76504 47.3905 7.46211 46.9852 7.98086 46.2881C8.28887 45.8829 8.30508 45.6559 8.24023 44.3428C8.14297 42.3975 8.14297 38.5393 8.24023 36.6588C8.30508 35.3457 8.28887 35.1188 7.98086 34.7297C7.4459 34.0002 6.91094 33.6922 5.225 33.1411C4.17129 32.7844 3.62012 32.525 3.63633 32.3791C3.65254 32.136 5.8248 25.3922 5.92207 25.2625C5.95449 25.2301 6.71641 25.4409 7.62422 25.7327C9.45605 26.3325 10.5422 26.3649 11.2879 25.7975C11.5148 25.6192 12.1795 24.7276 12.7469 23.7873C13.8654 21.9393 15.0813 20.302 16.4268 18.7944C18.0154 17.0112 17.9992 16.2006 16.3619 13.9149C15.2758 12.3911 15.2596 12.3749 15.6 12.1155C17.367 10.7538 21.4197 7.90063 21.5332 7.94926C21.6143 7.98169 22.133 8.61391 22.7004 9.35962C23.2678 10.1215 23.9162 10.8834 24.1594 11.0618C24.8889 11.5805 25.9264 11.4995 27.5475 10.7862C29.2334 10.0567 32.0217 9.16508 33.7076 8.80844C36.123 8.28969 36.5932 7.62505 36.6094 4.70708V2.89145H40.5H44.3906V4.70708C44.4068 7.60883 44.8932 8.3059 47.3248 8.80844C49.0918 9.18129 51.5072 9.95942 53.2904 10.7213C55.0898 11.4995 56.0949 11.5967 56.8406 11.0618C57.0838 10.8834 57.7322 10.1215 58.2996 9.35962C58.867 8.61391 59.402 7.98169 59.483 7.94926C59.5803 7.90063 64.9947 11.694 65.6594 12.2776C65.708 12.3262 65.2541 13.0557 64.6381 13.8987C64.0059 14.7579 63.4709 15.6657 63.4223 15.9899C63.2602 16.8491 63.6168 17.7245 64.6057 18.8268C65.935 20.3182 67.2805 22.15 68.318 23.8846C68.8205 24.7438 69.4527 25.5868 69.7283 25.7813C70.5389 26.3649 71.5115 26.3487 73.3758 25.7327C74.2836 25.4409 75.0455 25.2301 75.0617 25.2625C75.2887 25.603 77.4285 32.4926 77.3313 32.5737C77.2664 32.6385 76.4883 32.9141 75.5967 33.2059C72.9543 34.0651 72.4518 34.7784 72.7598 37.3721C72.8408 38.1502 72.9219 39.5606 72.9219 40.5008C72.9219 41.4411 72.8408 42.8514 72.7598 43.6295C72.4518 46.2233 72.8895 46.8555 75.6291 47.812C76.7477 48.1848 77.3799 48.4928 77.3637 48.6225C77.3475 48.8657 75.1752 55.6094 75.0779 55.7391C75.0455 55.7715 74.2836 55.5608 73.3758 55.269C70.8631 54.4422 69.7932 54.6692 68.9016 56.1768C68.0748 57.5709 66.4861 59.9215 65.6432 60.9428L64.8164 61.9803L65.4162 62.5153C66.7617 63.6825 66.7455 63.6663 67.3777 62.953C68.1721 62.029 69.6635 59.9053 70.474 58.5436C70.8631 57.8952 71.2197 57.3602 71.2684 57.3602C71.317 57.3602 72.0303 57.5872 72.8732 57.8465C73.7 58.1221 74.7213 58.3329 75.1266 58.3329C75.9533 58.3329 76.7801 57.9114 77.1854 57.2954C77.5258 56.7766 80.0547 48.9305 80.0547 48.3956C80.0547 47.7795 79.6818 46.969 79.1955 46.5151C78.9686 46.3043 77.9959 45.8666 77.0232 45.5424L75.2725 44.9426L75.3535 43.97C75.4022 43.4512 75.4346 41.8788 75.4346 40.5008C75.4346 39.1229 75.4022 37.5504 75.3535 37.0155L75.2725 36.0428L77.007 35.4754C77.9959 35.135 78.9361 34.7297 79.1793 34.5028C79.6818 34.0165 80.0547 33.2383 80.0547 32.5899C80.0547 31.9577 77.4934 24.144 77.1043 23.5928C76.3424 22.5067 75.0779 22.377 72.857 23.1389C72.0465 23.4145 71.3494 23.6415 71.3008 23.6415C71.2359 23.6415 70.8793 23.1065 70.4902 22.4581C69.5824 20.9342 68.1721 18.9727 66.9563 17.5786L65.9836 16.46L67.1021 14.92C68.3504 13.1854 68.5773 12.4235 68.1721 11.4508C68.0262 11.1266 67.7182 10.6727 67.4588 10.462C66.5672 9.66762 60.8609 5.59868 60.326 5.38794C59.0129 4.83677 58.0564 5.32309 56.6299 7.25219C56.0301 8.06274 55.4627 8.72739 55.3492 8.72739C55.2357 8.72739 54.6684 8.51665 54.101 8.25727C52.6744 7.62505 49.9186 6.71723 48.3299 6.3768L47.0168 6.08501L46.952 4.01001C46.9033 1.7729 46.7898 1.46489 45.7848 0.719185C45.3633 0.394966 45.1039 0.378757 40.6945 0.346333C37.0633 0.313911 35.9285 0.346333 35.5557 0.524654Z" fill="black" stroke="black" stroke-width="0.5"></path>
  <path d="M36.8528 12.2281C30.2387 13.1197 24.6135 15.9566 19.961 20.7551C13.428 27.5313 10.6883 36.9174 12.5526 46.2387C12.8606 47.7301 13.8819 51.0371 14.044 51.0371C14.2709 51.0371 16.3459 50.1617 16.3459 50.0645C16.3459 50.0158 16.119 49.3188 15.8596 48.5244C14.9518 45.8172 14.6438 43.8557 14.66 40.5C14.66 37.1443 14.968 35.118 15.8758 32.3621C18.6641 23.9973 25.6996 17.4318 34.0645 15.3893C36.7069 14.757 37.5012 14.6598 40.5002 14.6598C42.9481 14.6598 43.8235 14.7246 45.2825 15.0164C55.9979 17.1563 63.9899 25.2131 66.0487 35.9609C66.2594 37.0957 66.3405 38.2791 66.3405 40.5C66.3405 43.8557 66.0487 45.8334 65.1409 48.5244C64.8815 49.3188 64.6545 50.0158 64.6545 50.0645C64.6545 50.1617 66.7295 51.0371 66.9565 51.0371C67.0213 51.0371 67.3293 50.2104 67.6535 49.2053C69.9069 42.1049 69.3233 34.3561 66.0162 27.8068C60.5369 16.8807 48.784 10.607 36.8528 12.2281Z" fill="#23BAB1" stroke="#23BAB1"></path>
  <path d="M39.1871 18.6639C37.2256 19.3934 36.1881 21.4846 36.8041 23.5109C37.0311 24.2891 38.0361 25.4725 38.717 25.748L39.2033 25.9426V31.276V36.6094H40.5002H41.7971V31.276V25.9426L42.2834 25.748C43.3857 25.2941 44.3908 23.6568 44.3908 22.3113C44.3908 20.982 43.4344 19.4582 42.2186 18.826C41.5539 18.4855 39.9166 18.3883 39.1871 18.6639ZM41.3918 21.4521C41.6512 21.6953 41.7971 22.0357 41.7971 22.3438C41.7971 22.6518 41.6512 22.9922 41.3918 23.2354C40.5975 24.0459 39.2033 23.4785 39.2033 22.3438C39.2033 21.6791 39.8356 21.0469 40.5002 21.0469C40.8082 21.0469 41.1486 21.1928 41.3918 21.4521Z" fill="#23BAB1" stroke="#23BAB1"></path>
  <path d="M52.0098 23.7379C51.2803 24.0621 50.4535 24.8564 50.0158 25.667C49.7402 26.1695 49.6592 26.591 49.6592 27.5475L49.6754 28.7795L48.4758 29.6549C47.8111 30.1412 47.2113 30.66 47.1303 30.8059C47.0492 30.9518 46.9844 32.3135 46.9844 33.8373V36.6094H48.2812H49.5781V34.3398V32.0865L50.4373 31.4219L51.2965 30.7734L51.9287 31.0977C52.6906 31.4867 54.3441 31.5354 55.1547 31.1949C55.9166 30.8869 56.8406 30.0115 57.2459 29.2496C57.5053 28.7471 57.5863 28.2932 57.5863 27.4502C57.5863 26.6072 57.5053 26.1533 57.2459 25.6508C56.8406 24.8889 55.9166 24.0135 55.1547 23.7055C54.4414 23.4137 52.723 23.4299 52.0098 23.7379ZM54.3604 26.6396C54.6197 26.8828 54.7656 27.2232 54.7656 27.5312C54.7656 27.8393 54.6197 28.1797 54.3604 28.4229C54.1172 28.6822 53.7768 28.8281 53.4687 28.8281C53.1607 28.8281 52.8203 28.6822 52.5771 28.4229C52.3178 28.1797 52.1719 27.8393 52.1719 27.5312C52.1719 27.2232 52.3178 26.8828 52.5771 26.6396C52.8203 26.3803 53.1607 26.2344 53.4687 26.2344C53.7768 26.2344 54.1172 26.3803 54.3604 26.6396Z" fill="#23BAB1" stroke="#23BAB1"></path>
  <path d="M26.2177 23.8676C24.4669 24.4836 23.397 26.3154 23.705 28.2121C24.0941 30.66 26.9472 32.1352 29.1519 31.049L29.6868 30.7734L30.5622 31.4219L31.4214 32.0865V34.3398V36.6094H32.7183H34.0152V33.8373C34.0152 32.3135 33.9503 30.9518 33.8693 30.8059C33.7882 30.66 33.1722 30.125 32.4913 29.6387L31.2755 28.7471L31.3728 27.9689C31.7132 25.1969 28.8601 22.9273 26.2177 23.8676ZM28.4224 26.6396C29.2329 27.434 28.6655 28.8281 27.5308 28.8281C26.8661 28.8281 26.2339 28.1959 26.2339 27.5312C26.2339 26.8666 26.8661 26.2344 27.5308 26.2344C27.8388 26.2344 28.1792 26.3803 28.4224 26.6396Z" fill="#23BAB1" stroke="#23BAB1"></path>
  <path d="M30.5303 39.6083L30.125 39.9973V44.9903V49.9833L25.1645 51.8475C21.8574 53.0796 20.1391 53.8091 19.977 54.0198C19.7824 54.2954 19.75 55.6247 19.75 61.6876V69.0311H10.4287H1.09121L0.702148 69.4364C0.296875 69.8255 0.296875 69.8579 0.296875 72.9218C0.296875 75.9856 0.296875 76.0181 0.702148 76.4071L1.09121 76.8124H35.0693H69.0312V78.3524C69.0312 79.779 69.0637 79.9411 69.4365 80.2977C70.1822 81.0597 70.393 80.9624 75.6453 77.2015C80.6869 73.6026 80.8652 73.4243 80.6383 72.5327C80.5734 72.2571 79.1631 71.1548 75.6453 68.6421C70.393 64.8811 70.1822 64.7839 69.4365 65.5458C69.0637 65.9024 69.0312 66.0645 69.0312 67.4911V69.0311H65.1406H61.25V61.6876C61.25 55.5599 61.2176 54.2954 61.023 54.0198C60.8609 53.7929 59.2074 53.0958 55.8355 51.8313L50.875 49.9833V44.9903V39.9973L50.4697 39.6083L50.0807 39.203H40.5H30.9193L30.5303 39.6083ZM48.2812 55.414V69.0311H47.0006H45.7199L45.6551 66.3888L45.6064 63.7626L45.0553 62.7413C44.4555 61.6227 43.7584 60.9743 42.6074 60.4069C41.5375 59.8882 39.4301 59.9044 38.3115 60.4393C37.274 60.9419 36.3014 61.9145 35.7988 62.952C35.4422 63.6977 35.3936 63.9895 35.3449 66.3888L35.2801 69.0311H33.9994H32.7188V55.414V41.7968H40.5H48.2812V55.414ZM30.125 60.9257V69.0311H26.2344H22.3438V62.336V55.6571L26.1209 54.2468C28.1797 53.4686 29.9305 52.8364 30.0115 52.8202C30.0764 52.8202 30.125 56.4677 30.125 60.9257ZM54.8791 54.2306L58.6562 55.6571V62.336V69.0311H54.7656H50.875V60.9257C50.875 56.4677 50.9236 52.8202 50.9885 52.8202C51.0371 52.8202 52.7879 53.4524 54.8791 54.2306ZM41.9266 62.9845C42.9316 63.7302 43.0127 63.9895 43.0613 66.6157L43.11 69.0311H40.5162H37.9062V66.8589C37.9062 65.6593 37.9873 64.4759 38.0846 64.2165C38.3115 63.6167 38.8465 63.0493 39.4463 62.7737C40.0947 62.4657 41.3754 62.5792 41.9266 62.9845ZM74.6078 71.0575C75.9857 72.0302 77.1205 72.8731 77.1205 72.9218C77.1205 72.9704 75.9047 73.862 74.4133 74.9157L71.7061 76.8286L71.625 75.8397C71.5602 75.0454 71.4629 74.7698 71.1549 74.5266C70.782 74.2186 69.9877 74.2186 36.8363 74.2186H2.89062V72.9218V71.6249H36.8525H70.8307L71.2197 71.2196C71.5602 70.8954 71.625 70.6684 71.625 69.9227C71.625 69.1932 71.6736 69.0474 71.852 69.1446C71.9816 69.2095 73.2137 70.0686 74.6078 71.0575Z" fill="black" stroke="black" stroke-width="0.5"></path>
  <path d="M35.9609 45.6875V46.9844H37.2578H38.5547V45.6875V44.3906H37.2578H35.9609V45.6875Z" fill="black"></path>
  <path d="M42.4453 45.6875V46.9844H43.7422H45.0391V45.6875V44.3906H43.7422H42.4453V45.6875Z" fill="black"></path>
  <path d="M35.9609 50.875V52.1719H37.2578H38.5547V50.875V49.5781H37.2578H35.9609V50.875Z" fill="black"></path>
  <path d="M42.4453 50.875V52.1719H43.7422H45.0391V50.875V49.5781H43.7422H42.4453V50.875Z" fill="black"></path>
  <path d="M35.9609 56.0625V57.3594H37.2578H38.5547V56.0625V54.7656H37.2578H35.9609V56.0625Z" fill="black"></path>
  <path d="M42.4453 56.0625V57.3594H43.7422H45.0391V56.0625V54.7656H43.7422H42.4453V56.0625Z" fill="black"></path>
</svg>
